<svg xmlns="http://www.w3.org/2000/svg" xmlns:lucid="lucid" width="377" height="255"><g lucid:page-tab-id="0_0"><path d="M-89-111h1870.87v1322.83H-89z" fill="#fff"/><path d="M382 414.23h9" stroke="#000" stroke-width="5" fill-opacity="0"/><path d="M178.24 87.14c-6.84 7.86-13.68 15.72-31.68 5.1-18-10.6-47.16-39.3-68.04-45.2-20.88-5.9-33.48 11-40.68 40.1-7.2 29.48-9 71.16-4.32 100.64 4.32 29.88 15.12 47.18 40.68 35.4 25.56-12.2 66.24-53.87 104.04-55.45 37.8-1.57 72.72 36.96 95.04 50.33 22.32 12.97 32.4.78 49.68-30.28 17.64-31.06 42.12-80.6 31.68-115.58-10.08-35-55.08-55.43-90.36-50.32-35.28 5.1-60.48 35-86.04 65.26z" stroke="#000" stroke-width="2.51" fill="#a2eda8" fill-opacity=".52"/></g></svg>