<svg xmlns="http://www.w3.org/2000/svg" xmlns:lucid="lucid" width="187" height="161"><g lucid:page-tab-id="0_0"><path d="M-175-140h1870.87v1322.83H-175z" fill="#fff"/><path d="M165 80c0 33.14-31.34 60-70 60s-70-26.86-70-60 31.34-60 70-60 70 26.86 70 60z" fill="#fcc438" fill-opacity=".7"/><path d="M163.98 90.16l-.17.9-.92 3.64-1.2 3.6-.1.27m-2.4 5.33l-.75 1.52-2.08 3.5-1.7 2.46m-3.63 4.6l-2.87 3.06-3.33 3.1m-4.6 3.62l-3.3 2.3-4.07 2.4m-5.22 2.63l-4.76 1.96-3.43 1.14m-5.63 1.57l-1.57.4-5.6 1-1.43.16m-5.82.52L95 140l-4.38-.16m-5.82-.5l-1.47-.17-5.6-1-1.54-.4m-5.64-1.57l-3.48-1.16-4.7-1.95m-5.23-2.63l-4.12-2.44-3.26-2.27m-4.6-3.6L41.83 119l-2.84-3.04m-3.62-4.58l-1.73-2.5-2.08-3.5-.74-1.48m-2.37-5.33l-.13-.3-1.2-3.6-.92-3.63-.16-.88m-.82-5.78l-.07-.68L25 80l.13-3.73.07-.65m.82-5.78l.17-.9.92-3.64 1.2-3.6.1-.27m2.4-5.33l.75-1.52 2.08-3.5 1.7-2.46m3.63-4.6l2.87-3.06 3.33-3.1m4.6-3.62l3.3-2.3 4.07-2.4m5.22-2.63l4.76-1.96 3.43-1.14m5.63-1.57l1.57-.4 5.6-1 1.43-.16m5.82-.52L95 20l4.38.16m5.82.5l1.47.17 5.6 1 1.54.4m5.64 1.57l3.48 1.16 4.7 1.95m5.23 2.63l4.12 2.44 3.26 2.27m4.6 3.6l3.35 3.15 2.84 3.04m3.62 4.58l1.73 2.5 2.08 3.5.74 1.48m2.37 5.33l.13.3 1.2 3.6.92 3.63.16.88m.82 5.78l.07.68.13 3.7-.13 3.73-.07.65" stroke="#5e5e5e" stroke-width="3" fill="none"/></g></svg>